<?xml version="1.0" encoding="utf-8"?>
<!-- Generator: Adobe Illustrator 28.0.0, SVG Export Plug-In . SVG Version: 6.00 Build 0)  -->
<svg version="1.1" id="Layer_1" xmlns="http://www.w3.org/2000/svg" xmlns:xlink="http://www.w3.org/1999/xlink" x="0px" y="0px"
	 viewBox="0 0 1000 1000" style="enable-background:new 0 0 1000 1000;" xml:space="preserve">
<style type="text/css">
	.st0{fill:#8B764F;}
	.st1{fill-rule:evenodd;clip-rule:evenodd;fill:#8B764F;}
</style>
<g>
	<g>
		<g>
			<path class="st0" d="M257.31,740.1l0.2,4.3H257c-0.1-0.76-0.24-1.3-0.41-1.63c-0.28-0.52-0.65-0.9-1.11-1.15
				s-1.08-0.37-1.84-0.37h-2.57v13.99c0,1.13,0.12,1.83,0.36,2.11c0.34,0.38,0.87,0.58,1.58,0.58h0.63v0.49h-7.76v-0.49h0.64
				c0.78,0,1.33-0.24,1.65-0.71c0.2-0.29,0.3-0.95,0.3-1.98v-13.99h-2.19c-0.86,0-1.47,0.06-1.83,0.18c-0.47,0.18-0.87,0.5-1.2,0.99
				c-0.33,0.48-0.53,1.14-0.59,1.98h-0.51l0.21-4.3H257.31z"/>
			<path class="st0" d="M275.43,739.77c2.38,0,4.45,0.9,6.19,2.71c1.74,1.81,2.61,4.06,2.61,6.77c0,2.78-0.88,5.09-2.64,6.93
				c-1.76,1.84-3.88,2.76-6.38,2.76c-2.53,0-4.65-0.9-6.36-2.69s-2.57-4.11-2.57-6.96c0-2.91,0.99-5.29,2.97-7.14
				C270.98,740.57,273.04,739.77,275.43,739.77z M275.19,740.76c-1.65,0-2.97,0.61-3.96,1.83c-1.23,1.52-1.85,3.73-1.85,6.64
				c0,2.99,0.64,5.29,1.91,6.91c0.99,1.23,2.29,1.85,3.89,1.85c1.72,0,3.15-0.67,4.27-2.02s1.68-3.46,1.68-6.35
				c0-3.13-0.62-5.47-1.85-7C278.3,741.38,276.93,740.76,275.19,740.76z"/>
			<path class="st0" d="M305.52,740.7v-0.49h6.49v0.49h-0.69c-0.73,0-1.28,0.3-1.67,0.91c-0.19,0.29-0.28,0.93-0.28,1.94v7.43
				c0,1.83-0.18,3.26-0.55,4.28c-0.37,1.02-1.08,1.89-2.15,2.61c-1.07,0.73-2.52,1.09-4.35,1.09c-2,0-3.52-0.35-4.56-1.04
				c-1.04-0.69-1.77-1.63-2.2-2.8c-0.29-0.8-0.43-2.31-0.43-4.52v-7.15c0-1.13-0.16-1.87-0.47-2.23c-0.31-0.35-0.82-0.53-1.51-0.53
				h-0.69v-0.49h7.93v0.49h-0.71c-0.76,0-1.3,0.24-1.62,0.73c-0.23,0.32-0.35,0.99-0.35,2.03v7.98c0,0.71,0.07,1.53,0.2,2.45
				c0.13,0.92,0.37,1.63,0.71,2.15c0.34,0.52,0.83,0.94,1.47,1.27c0.64,0.33,1.44,0.5,2.38,0.5c1.2,0,2.27-0.26,3.21-0.78
				c0.94-0.52,1.59-1.19,1.94-2c0.35-0.81,0.52-2.19,0.52-4.14v-7.42c0-1.15-0.13-1.87-0.38-2.16c-0.35-0.4-0.87-0.59-1.57-0.59
				H305.52z"/>
			<path class="st0" d="M337.93,758.43h-4.9l-6.2-8.57c-0.46,0.02-0.83,0.03-1.12,0.03c-0.12,0-0.25,0-0.39-0.01
				c-0.14,0-0.28-0.01-0.42-0.02v5.32c0,1.15,0.13,1.87,0.38,2.16c0.34,0.4,0.86,0.59,1.55,0.59h0.71v0.49h-7.84v-0.49h0.69
				c0.77,0,1.32-0.25,1.65-0.76c0.2-0.29,0.3-0.95,0.3-1.99v-11.83c0-1.15-0.13-1.87-0.38-2.16c-0.35-0.4-0.87-0.59-1.57-0.59h-0.69
				v-0.49h6.67c1.94,0,3.38,0.14,4.3,0.43c0.92,0.29,1.71,0.81,2.35,1.57s0.96,1.66,0.96,2.72c0,1.13-0.37,2.11-1.1,2.94
				c-0.73,0.83-1.87,1.42-3.42,1.76l3.79,5.26c0.87,1.21,1.61,2.01,2.23,2.41c0.62,0.4,1.43,0.65,2.43,0.76V758.43z M324.91,749
				c0.18,0,0.33,0,0.45,0.01c0.13,0.01,0.23,0.01,0.3,0.01c1.75,0,3.07-0.38,3.96-1.13c0.89-0.75,1.33-1.72,1.33-2.89
				c0-1.14-0.36-2.07-1.08-2.79s-1.67-1.08-2.84-1.08c-0.53,0-1.24,0.09-2.13,0.26V749z"/>
			<path class="st0" d="M353.07,757.94v0.49h-7.84v-0.49h0.64c0.76,0,1.31-0.23,1.65-0.68c0.22-0.29,0.33-0.98,0.33-2.08v-11.83
				c0-0.93-0.06-1.55-0.18-1.85c-0.09-0.22-0.27-0.41-0.54-0.58c-0.4-0.22-0.81-0.33-1.25-0.33h-0.64v-0.49h7.84v0.49h-0.66
				c-0.75,0-1.29,0.23-1.63,0.68c-0.23,0.29-0.35,0.98-0.35,2.08v11.83c0,0.93,0.06,1.55,0.18,1.85c0.09,0.22,0.27,0.41,0.56,0.58
				c0.4,0.22,0.81,0.33,1.24,0.33H353.07z"/>
			<path class="st0" d="M373.72,739.77v6.35h-0.49c-0.17-1.22-0.46-2.19-0.87-2.91c-0.42-0.72-1.01-1.29-1.79-1.71
				c-0.78-0.42-1.58-0.63-2.42-0.63c-0.93,0-1.71,0.29-2.32,0.86s-0.92,1.22-0.92,1.94c0,0.56,0.2,1.07,0.59,1.53
				c0.55,0.68,1.88,1.58,3.99,2.7c1.7,0.92,2.87,1.63,3.49,2.12c0.63,0.49,1.11,1.07,1.45,1.73c0.34,0.67,0.51,1.37,0.51,2.1
				c0,1.38-0.54,2.58-1.62,3.58c-1.08,1-2.46,1.51-4.15,1.51c-0.54,0-1.04-0.04-1.5-0.12c-0.29-0.04-0.87-0.21-1.75-0.49
				c-0.88-0.29-1.43-0.43-1.67-0.43s-0.41,0.07-0.54,0.2c-0.13,0.13-0.22,0.41-0.29,0.84h-0.49v-6.28h0.49
				c0.23,1.31,0.54,2.29,0.94,2.94c0.4,0.65,1,1.2,1.82,1.63c0.82,0.43,1.71,0.65,2.68,0.65c1.13,0,2.02-0.3,2.68-0.89
				c0.65-0.59,0.98-1.3,0.98-2.11c0-0.45-0.12-0.91-0.37-1.37c-0.25-0.46-0.63-0.89-1.16-1.29c-0.35-0.26-1.31-0.83-2.88-1.71
				c-1.57-0.88-2.68-1.58-3.35-2.1c-0.67-0.52-1.17-1.1-1.51-1.73c-0.34-0.63-0.51-1.33-0.51-2.08c0-1.32,0.51-2.45,1.52-3.4
				s2.3-1.43,3.86-1.43c0.97,0,1.99,0.24,3.08,0.73c0.51,0.22,0.86,0.33,1.07,0.33c0.23,0,0.42-0.07,0.57-0.21
				c0.15-0.14,0.27-0.42,0.37-0.85H373.72z"/>
			<path class="st0" d="M394.92,758.43L387.84,743v12.25c0,1.13,0.13,1.83,0.38,2.11c0.33,0.38,0.86,0.58,1.58,0.58h0.64v0.49h-6.38
				v-0.49h0.64c0.78,0,1.33-0.24,1.65-0.71c0.2-0.29,0.3-0.95,0.3-1.98v-11.97c0-0.81-0.09-1.4-0.26-1.76
				c-0.13-0.26-0.37-0.48-0.7-0.66s-0.88-0.26-1.62-0.26v-0.49h5.19l6.64,14.34l6.54-14.34h5.19v0.49h-0.64
				c-0.78,0-1.33,0.24-1.65,0.71c-0.2,0.29-0.3,0.95-0.3,1.98v11.97c0,1.13,0.12,1.83,0.36,2.11c0.34,0.38,0.87,0.58,1.58,0.58h0.64
				v0.49h-7.78v-0.49h0.64c0.78,0,1.33-0.24,1.65-0.71c0.2-0.29,0.3-0.95,0.3-1.98V743l-7.07,15.43H394.92z"/>
			<path class="st0" d="M443.81,745.21h6.41v0.56c-0.88,0.08-1.53,0.27-1.96,0.59s-1.08,1.29-1.97,2.91
				c-0.89,1.62-1.91,3.13-3.04,4.54c0.91,1.07,1.72,1.81,2.43,2.23c0.71,0.42,1.43,0.63,2.15,0.63c0.71,0,1.31-0.19,1.8-0.58
				c0.49-0.38,0.83-0.95,1.03-1.69l0.56,0.41c-0.37,1.44-0.97,2.5-1.81,3.18s-1.81,1.02-2.92,1.02c-0.83,0-1.68-0.23-2.54-0.68
				s-1.8-1.22-2.82-2.3c-1.25,1.12-2.39,1.89-3.4,2.33c-1.01,0.43-2.1,0.65-3.25,0.65c-1.68,0-3.01-0.45-4-1.34
				c-0.99-0.89-1.48-1.96-1.48-3.2s0.44-2.47,1.32-3.7s2.54-2.49,4.99-3.81c-0.48-1.06-0.81-1.92-0.98-2.6
				c-0.17-0.68-0.25-1.33-0.25-1.95c0-1.75,0.64-3.08,1.92-3.99c0.99-0.72,2.13-1.08,3.41-1.08c1.2,0,2.19,0.36,2.95,1.08
				c0.76,0.72,1.15,1.6,1.15,2.64c0,1.08-0.37,2.03-1.11,2.84c-0.74,0.81-2.04,1.7-3.9,2.67c1.29,2.31,2.64,4.42,4.04,6.33
				c1.79-2.13,2.68-3.94,2.68-5.4c0-0.47-0.15-0.89-0.45-1.27c-0.22-0.27-0.55-0.43-0.97-0.48V745.21z M440.35,755.15
				c-1.34-1.84-2.27-3.18-2.79-4.02c-0.52-0.84-1.09-1.89-1.71-3.15c-1.23,0.71-2.15,1.48-2.77,2.33c-0.61,0.84-0.92,1.76-0.92,2.74
				c0,1.09,0.35,2.05,1.05,2.88c0.7,0.83,1.65,1.24,2.84,1.24c0.65,0,1.27-0.13,1.86-0.38C438.5,756.53,439.32,755.98,440.35,755.15
				z M437.98,745.6c1.25-0.6,2.19-1.28,2.82-2.04c0.63-0.76,0.94-1.62,0.94-2.56c0-0.73-0.23-1.34-0.68-1.82s-1.01-0.72-1.69-0.72
				c-0.88,0-1.55,0.31-2,0.92c-0.45,0.61-0.68,1.22-0.68,1.82c0,0.5,0.09,1.05,0.26,1.67C437.13,743.48,437.47,744.39,437.98,745.6z
				"/>
			<path class="st0" d="M471.8,758.43L464.71,743v12.25c0,1.13,0.13,1.83,0.38,2.11c0.33,0.38,0.86,0.58,1.58,0.58h0.64v0.49h-6.38
				v-0.49h0.64c0.78,0,1.33-0.24,1.65-0.71c0.2-0.29,0.3-0.95,0.3-1.98v-11.97c0-0.81-0.09-1.4-0.26-1.76
				c-0.13-0.26-0.37-0.48-0.7-0.66s-0.88-0.26-1.62-0.26v-0.49h5.19l6.64,14.34l6.54-14.34h5.19v0.49h-0.64
				c-0.78,0-1.33,0.24-1.65,0.71c-0.2,0.29-0.3,0.95-0.3,1.98v11.97c0,1.13,0.12,1.83,0.36,2.11c0.34,0.38,0.87,0.58,1.58,0.58h0.64
				v0.49h-7.78v-0.49h0.64c0.78,0,1.33-0.24,1.65-0.71c0.2-0.29,0.3-0.95,0.3-1.98V743l-7.07,15.43H471.8z"/>
			<path class="st0" d="M501.3,752.3h-7.09l-1.25,2.88c-0.3,0.71-0.44,1.25-0.44,1.6c0,0.28,0.13,0.52,0.4,0.73
				c0.26,0.21,0.83,0.35,1.71,0.42v0.49h-5.77v-0.49c0.77-0.14,1.26-0.32,1.48-0.53c0.46-0.44,0.97-1.32,1.53-2.64l6.44-15.08h0.48
				l6.38,15.25c0.52,1.22,0.98,2.01,1.4,2.38c0.42,0.37,1,0.57,1.75,0.62v0.49h-7.24v-0.49c0.74-0.04,1.23-0.17,1.48-0.37
				c0.25-0.2,0.38-0.45,0.38-0.75c0-0.4-0.18-1.02-0.53-1.88L501.3,752.3z M500.92,751.29l-3.1-7.4l-3.2,7.4H500.92z"/>
			<path class="st0" d="M530.88,758.43h-4.9l-6.2-8.57c-0.46,0.02-0.83,0.03-1.12,0.03c-0.12,0-0.25,0-0.39-0.01
				c-0.14,0-0.28-0.01-0.42-0.02v5.32c0,1.15,0.13,1.87,0.38,2.16c0.34,0.4,0.86,0.59,1.55,0.59h0.71v0.49h-7.84v-0.49h0.69
				c0.77,0,1.32-0.25,1.65-0.76c0.2-0.29,0.3-0.95,0.3-1.99v-11.83c0-1.15-0.13-1.87-0.38-2.16c-0.35-0.4-0.87-0.59-1.57-0.59h-0.69
				v-0.49h6.67c1.94,0,3.38,0.14,4.3,0.43c0.92,0.29,1.71,0.81,2.35,1.57s0.96,1.66,0.96,2.72c0,1.13-0.37,2.11-1.1,2.94
				c-0.73,0.83-1.87,1.42-3.42,1.76l3.79,5.26c0.87,1.21,1.61,2.01,2.23,2.41c0.62,0.4,1.43,0.65,2.43,0.76V758.43z M517.86,749
				c0.18,0,0.33,0,0.45,0.01c0.13,0.01,0.23,0.01,0.3,0.01c1.75,0,3.07-0.38,3.96-1.13c0.89-0.75,1.33-1.72,1.33-2.89
				c0-1.14-0.36-2.07-1.08-2.79s-1.67-1.08-2.84-1.08c-0.53,0-1.24,0.09-2.13,0.26V749z"/>
			<path class="st0" d="M542.33,748.26l6.76,6.72c1.11,1.11,2.05,1.87,2.83,2.27c0.78,0.4,1.57,0.63,2.36,0.68v0.49h-8.72v-0.49
				c0.52,0,0.89-0.09,1.12-0.26s0.35-0.37,0.35-0.59s-0.04-0.41-0.12-0.58c-0.08-0.17-0.37-0.49-0.85-0.95l-6.33-6.26v5.9
				c0,0.93,0.06,1.55,0.18,1.85c0.09,0.22,0.28,0.41,0.58,0.58c0.38,0.22,0.79,0.33,1.22,0.33h0.63v0.49h-7.81v-0.49h0.64
				c0.76,0,1.31-0.23,1.65-0.68c0.22-0.29,0.33-0.98,0.33-2.08v-11.83c0-0.93-0.06-1.55-0.18-1.85c-0.09-0.22-0.27-0.41-0.54-0.58
				c-0.4-0.22-0.81-0.33-1.25-0.33h-0.64v-0.49h7.81v0.49h-0.63c-0.42,0-0.82,0.1-1.22,0.31c-0.29,0.14-0.48,0.36-0.59,0.65
				c-0.11,0.29-0.17,0.89-0.17,1.79v5.6c0.19-0.17,0.81-0.74,1.86-1.71c2.67-2.45,4.29-4.09,4.85-4.91
				c0.24-0.35,0.36-0.66,0.36-0.94c0-0.21-0.09-0.39-0.28-0.55s-0.5-0.24-0.96-0.24h-0.43v-0.49h6.74v0.49
				c-0.4,0.01-0.75,0.07-1.08,0.17s-0.72,0.29-1.2,0.58c-0.47,0.29-1.05,0.74-1.73,1.37c-0.2,0.19-1.11,1.11-2.74,2.77
				L542.33,748.26z"/>
			<path class="st0" d="M563.29,741.11v7.24h4.02c1.04,0,1.74-0.15,2.09-0.46c0.47-0.42,0.74-1.15,0.79-2.19h0.5v6.38h-0.5
				c-0.12-0.89-0.25-1.46-0.38-1.71c-0.17-0.32-0.43-0.57-0.8-0.75c-0.37-0.18-0.94-0.27-1.71-0.27h-4.02v6.05
				c0,0.8,0.04,1.29,0.11,1.47c0.07,0.18,0.2,0.32,0.38,0.42c0.18,0.1,0.52,0.16,1.03,0.16h3.1c1.04,0,1.8-0.07,2.27-0.21
				s0.92-0.42,1.34-0.84c0.56-0.56,1.13-1.41,1.71-2.54h0.54l-1.58,4.6h-14.12v-0.49h0.66c0.43,0,0.83-0.1,1.22-0.31
				c0.3-0.14,0.5-0.36,0.6-0.65c0.1-0.29,0.16-0.88,0.16-1.77v-11.9c0-1.17-0.12-1.88-0.36-2.16c-0.32-0.36-0.86-0.54-1.62-0.54
				h-0.66v-0.49h14.12l0.21,4.02h-0.53c-0.2-0.97-0.41-1.63-0.63-1.99c-0.23-0.36-0.56-0.64-1.01-0.82c-0.36-0.13-1-0.2-1.91-0.2
				H563.29z"/>
			<path class="st0" d="M594.13,740.1l0.2,4.3h-0.51c-0.1-0.76-0.24-1.3-0.41-1.63c-0.28-0.52-0.65-0.9-1.11-1.15
				s-1.08-0.37-1.84-0.37h-2.57v13.99c0,1.13,0.12,1.83,0.36,2.11c0.34,0.38,0.87,0.58,1.58,0.58h0.63v0.49h-7.76v-0.49h0.64
				c0.78,0,1.33-0.24,1.65-0.71c0.2-0.29,0.3-0.95,0.3-1.98v-13.99h-2.19c-0.86,0-1.47,0.06-1.83,0.18c-0.47,0.18-0.87,0.5-1.2,0.99
				c-0.33,0.48-0.53,1.14-0.59,1.98h-0.51l0.21-4.3H594.13z"/>
			<path class="st0" d="M607.23,757.94v0.49h-7.84v-0.49h0.64c0.76,0,1.31-0.23,1.65-0.68c0.22-0.29,0.33-0.98,0.33-2.08v-11.83
				c0-0.93-0.06-1.55-0.18-1.85c-0.09-0.22-0.27-0.41-0.54-0.58c-0.4-0.22-0.81-0.33-1.25-0.33h-0.64v-0.49h7.84v0.49h-0.66
				c-0.75,0-1.29,0.23-1.63,0.68c-0.23,0.29-0.35,0.98-0.35,2.08v11.83c0,0.93,0.06,1.55,0.18,1.85c0.09,0.22,0.27,0.41,0.56,0.58
				c0.4,0.22,0.81,0.33,1.24,0.33H607.23z"/>
			<path class="st0" d="M610.98,740.17h4.98l11.19,13.75v-10.56c0-1.13-0.13-1.83-0.38-2.11c-0.33-0.38-0.85-0.58-1.57-0.58h-0.64
				v-0.5h6.38v0.5h-0.64c-0.78,0-1.33,0.24-1.65,0.71c-0.2,0.29-0.3,0.95-0.3,1.98v15.44h-0.5l-12.08-14.75v11.27
				c0,1.13,0.12,1.83,0.36,2.11c0.34,0.38,0.87,0.58,1.58,0.58h0.64v0.5h-6.38V758h0.64c0.78,0,1.33-0.24,1.67-0.71
				c0.2-0.29,0.3-0.94,0.3-1.98v-12.74c-0.54-0.63-0.94-1.04-1.22-1.24c-0.27-0.2-0.67-0.38-1.2-0.54
				c-0.26-0.09-0.66-0.13-1.19-0.13V740.17z"/>
			<path class="st0" d="M652,739.77l0.46,5.79H652c-0.48-1.44-1.1-2.52-1.86-3.25c-1.09-1.05-2.49-1.58-4.2-1.58
				c-2.33,0-4.1,0.92-5.32,2.77c-1.01,1.56-1.52,3.42-1.52,5.57c0,1.75,0.34,3.34,1.01,4.78s1.56,2.49,2.65,3.17
				c1.09,0.67,2.22,1,3.37,1c0.67,0,1.32-0.08,1.95-0.26c0.63-0.17,1.24-0.42,1.82-0.75v-5.31c0-0.91-0.07-1.51-0.21-1.8
				c-0.14-0.29-0.35-0.5-0.64-0.65s-0.8-0.22-1.54-0.22v-0.51h7.09v0.51h-0.33c-0.7,0-1.19,0.24-1.45,0.71
				c-0.19,0.33-0.28,0.98-0.28,1.96v5.62c-1.03,0.55-2.06,0.96-3.07,1.22s-2.13,0.4-3.36,0.4c-3.54,0-6.22-1.14-8.06-3.41
				c-1.38-1.7-2.08-3.67-2.08-5.88c0-1.62,0.39-3.16,1.17-4.63c0.91-1.76,2.17-3.11,3.77-4.05c1.34-0.79,2.93-1.19,4.76-1.19
				c0.66,0,1.26,0.06,1.81,0.17c0.55,0.11,1.32,0.35,2.32,0.73c0.5,0.19,0.84,0.28,1,0.28c0.18,0,0.32-0.08,0.45-0.24
				s0.19-0.47,0.21-0.93H652z"/>
		</g>
	</g>
	<g>
		<g>
			<g>
				<path class="st0" d="M257.73,585.43c0,5.51,1.88,10.48,5.64,14.92c3.76,4.43,8.46,8.57,14.11,12.4
					c5.64,3.83,11.72,7.56,18.24,11.19c6.52,3.63,12.6,7.53,18.24,11.69c5.64,4.17,10.35,8.7,14.11,13.61
					c3.76,4.91,5.64,10.58,5.64,17.03c0,5.24-1.28,10.11-3.83,14.61c-2.55,4.5-6.01,8.4-10.38,11.69
					c-4.37,3.29-9.51,5.91-15.42,7.86c-5.91,1.95-12.23,2.92-18.95,2.92c-10.08,0-19.28-2.18-27.61-6.55
					c-8.33-4.37-14.92-10.51-19.75-18.44v-16.93h2.42c0.94,5.38,2.79,10.35,5.54,14.92c2.75,4.57,6.15,8.57,10.18,11.99
					c4.03,3.43,8.53,6.12,13.5,8.06c4.97,1.95,10.14,2.92,15.52,2.92c9.94,0,17.84-2.32,23.68-6.95c5.84-4.64,8.77-10.85,8.77-18.64
					c0-6.18-1.88-11.52-5.64-16.02c-3.76-4.5-8.43-8.67-14.01-12.5c-5.58-3.83-11.62-7.52-18.14-11.09
					c-6.52-3.56-12.57-7.36-18.14-11.39c-5.58-4.03-10.25-8.5-14.01-13.4c-3.76-4.9-5.64-10.71-5.64-17.43
					c0-4.84,1.11-9.3,3.33-13.4c2.22-4.1,5.24-7.66,9.07-10.68s8.36-5.37,13.6-7.05c5.24-1.68,10.88-2.52,16.93-2.52
					c4.97,0,9.54,0.6,13.71,1.81c4.16,1.21,7.93,2.55,11.29,4.03c3.36,1.48,6.25,2.89,8.67,4.23c2.42,1.34,4.3,2.22,5.64,2.62
					c1.61,0.4,2.42-0.27,2.42-2.02v-5.24h2.01v26.4h-2.42c-0.54-3.9-2.02-7.52-4.43-10.88c-2.42-3.36-5.48-6.31-9.17-8.87
					c-3.7-2.55-7.86-4.54-12.5-5.95c-4.64-1.41-9.51-2.12-14.61-2.12c-8.33,0-15.02,2.12-20.05,6.35
					C260.25,572.84,257.73,578.45,257.73,585.43z"/>
				<path class="st0" d="M436.71,651.54h-55.23l-13.3,36.68c-2.69,6.72-1.21,10.41,4.43,11.08v2.02h-21.16v-2.02
					c3.09-0.27,5.57-1.31,7.46-3.12c1.88-1.81,3.56-4.47,5.04-7.96l43.13-119.32l-3.22-8.67h16.12l46.16,127.99
					c1.48,3.5,3.16,6.15,5.04,7.96c1.88,1.81,4.37,2.86,7.46,3.12v2.02h-33.05v-2.02c5.64-0.67,7.12-4.37,4.43-11.08L436.71,651.54z
					 M382.89,647.51h52.4l-26.2-72.76L382.89,647.51z"/>
				<path class="st0" d="M602.99,688.23c0,3.63,0.67,6.32,2.02,8.06c1.34,1.75,3.49,2.76,6.45,3.02v2.02h-32.05v-2.02
					c2.95-0.27,5.11-1.28,6.45-3.02c1.34-1.74,2.01-4.43,2.01-8.06V573.34c0-3.63-0.67-6.31-2.01-8.06
					c-1.34-1.74-3.5-2.75-6.45-3.02v-2.01h86.87l5.04,32.25h-0.6c-1.21-5.24-2.62-9.67-4.23-13.3c-1.61-3.63-3.6-6.55-5.95-8.77
					c-2.35-2.22-5.11-3.79-8.26-4.74c-3.16-0.94-6.89-1.41-11.19-1.41h-38.09v59.26h24.99c4.84,0,8.57-1.31,11.19-3.93
					s4.8-7.29,6.55-14.01h0.4v39.91h-0.4c-1.75-6.72-3.93-11.39-6.55-14.01s-6.35-3.93-11.19-3.93h-24.99V688.23z"/>
			</g>
		</g>
		<path class="st1" d="M533.34,581.46c-0.23-1.07-0.86-1.91-1.81-2.5c-1.41-0.64-2.85-0.72-4.31-0.28
			c-0.71,0.01-1.41,0.07-2.11,0.17l-0.32-0.2c-0.14-0.8-0.4-2.02-0.64-3.46c0.32-2.04,2.77-3.21,1.83-6.13
			c-0.31-0.98-1.81-2.79-2.23-3.35c-0.41-0.56-0.48-0.93-0.36-1.72c0.11-0.78,1.17-0.23,1.91-0.64c0.74-0.41,0.95-0.76,1.97-1.55
			c1.01-0.8,1.72-1.31,1.58-2.55c-0.14-1.24-1.96-3.06-3.67-3.98c-5.66-3.05-11.23,1.21-12.24,6.91c-0.42,2.35-0.44,5.35-0.14,7.79
			c0.15,1.22,0.41,2.23,0.59,3.22c0.12,1.91,0.47,3.75,0.88,6.66c-0.3-1.11-0.97-1.94-1.98-2.57c-1-0.58-2.06-0.73-3.18-0.46
			c-1.12,0.27-1.97,0.89-2.59,1.84c-0.53,0.93-0.67,1.93-0.36,2.99c0.3,1.05,0.92,1.89,1.9,2.46c0.66,0.37,1.37,0.55,2.15,0.57
			l1.14-0.06l3.57-0.46c0.46,4.19,1.27,8.14,1.78,12.53c1.79,14.35,3.89,28.89,4.87,43.27c0.74,9.72,0.74,19.43,0.01,29.14
			c-0.42,6.93-1.45,13.81-3.05,20.6c-1.08,4.63-2.58,9.17-4.51,13.55c-1.49,2.66-3.2,5.18-5.11,7.54c-0.45,0.82-0.98,1.6-1.58,2.33
			c12.68-9.93,20.42-22.64,23.21-38.11c5.52-22.6-2.66-72.68-2.66-72.68l-2.74-19.25c0.26,1.09,0.9,1.94,1.92,2.53
			c0.95,0.59,2.01,0.8,3.12,0.58c1.14-0.24,2.01-0.8,2.64-1.73C533.41,583.53,533.59,582.52,533.34,581.46z"/>
	</g>
	<g>
		<path class="st0" d="M808.27,430.5c-0.93-2.68-1.4-5.6-1.31-8.6c0.08-2.61,0.7-5.08,1.74-7.34c-1.25-0.09-2.51-0.17-3.76-0.23
			c-25.19-1.92-32.75,1.39-57.48,6.76c5.02-1.78,8.58-5.12,11.11-9.97c2.32-4.79,2.63-9.72,0.99-14.76
			c-1.64-5.04-4.76-8.74-9.35-11.28c-4.47-2.1-9.11-2.39-13.85-0.63c-4.74,1.76-8.37,4.88-10.65,9.6
			c-1.48,3.17-2.07,6.48-1.85,10.07l0.68,5.22l3.37,16.25c-19.09,3.58-36.97,8.68-56.99,12.55
			c-65.35,13.23-131.47,27.94-197.24,37.47c-44.42,6.78-89.06,10.15-133.97,10.18c-32,0.48-64.01-1.88-95.79-6.84
			c-21.65-3.36-43.07-8.68-63.86-16.03c-12.75-5.93-24.94-12.91-36.46-20.87c-3.94-1.79-7.69-3.94-11.26-6.45
			c50.08,54.86,111.2,86.01,183.28,93.42c105.81,17.5,333.25-37.53,333.25-37.53l87.57-19.31c-4.91,1.57-8.61,4.84-10.96,9.69
			c-2.38,4.57-2.96,9.53-1.56,14.53c1.5,5.14,4.37,8.98,8.86,11.55c4.42,2.53,9.12,3.03,13.93,1.49c4.83-1.43,8.5-4.63,10.88-9.2
			c2.45-6.72,2.34-13.35-0.23-19.93c-0.3-3.28-0.8-6.48-1.51-9.63l0.81-1.55c10.09-2.53,34.2-10.55,55.5-8.47
			c-1.8-5.95-3.6-11.9-5.06-17.91C806.03,438.45,806.61,434.23,808.27,430.5z M422.01,515.71c-7.99,0.89-15.95,1.8-23.87,2.74
			c-7.92,0.94-15.83,1.86-23.75,2.75l16.95-29.55c17.27-1.85,33.19-3.68,47.74-5.49L422.01,515.71z"/>
		<path class="st1" d="M828.22,408.87c-10.95-1.09-24.75-0.17-35.85,2.04c-6.37,1.27-11.42,3.19-16.61,4.33l-3.56,49.72
			c9.55,0.68,15.79,11.68,28.94,6.32c4.39-1.79,12.21-9.32,14.63-11.42s4.12-2.52,7.76-2.27c3.64,0.24,1.49,5.29,3.61,8.54
			c2.13,3.25,3.82,4.12,7.83,8.49c4.02,4.37,6.6,7.44,12.25,6.36c5.65-1.08,13.38-10.1,17.01-18.26
			C876.29,435.63,854.78,411.52,828.22,408.87z"/>
	</g>
	<g>
		<path class="st0" d="M508.65,408.41c-8.5,3.17-98.68,24.16-114.2,26.33c-15.52,2.17-28.59,3.47-39.2,3.9l10.25-48.14
			c45.79-2.05,129.74-21.65,140.75-27.3 M454.61,399.18"/>
	</g>
	<g>
		<path class="st0" d="M639.35,376.54c3.77,0,5.66,3.24,5.66,9.71c0,6.34-1.55,12.54-4.65,18.61c-3.37,6.74-7.28,10.11-11.73,10.11
			c-10.39,0-18-4.45-22.86-13.35c-9.44,11.06-21.44,16.59-36.01,16.59c-7.55,0-13.42-1.49-17.6-4.45
			c-7.96,5.39-18.14,8.09-30.54,8.09c-12.95,0-20.5-4.05-22.66-12.14c-0.94-3.91-2.16-5.87-3.64-5.87c-1.08,0-3.37,0.88-6.88,2.63
			c-11.46,5.4-26.16,10.32-44.1,14.77c-18.88,4.72-34.39,7.08-46.53,7.08c-3.91,0-5.87-3.31-5.87-9.91c0-6.2,1.65-12.51,4.96-18.91
			c3.31-6.4,7.11-9.61,11.43-9.61c24.41,0,57.04-8.9,97.91-26.7c3.51-1.48,6.14-2.23,7.89-2.23c3.51,0,5.06,3.17,4.65,9.51
			c-0.4,4.99,0.74,8.57,3.44,10.72c2.7,2.16,6.47,3.03,11.33,2.63c8.5-0.4,15.71-3.17,21.64-8.29c3.1-2.83,6.68-7.41,10.72-13.76
			c2.96-4.85,5.39-7.28,7.28-7.28c2.56,0.14,3.84,2.36,3.84,6.68c0,4.05-0.58,7.82-1.72,11.33c-1.15,3.51-1.72,5.13-1.72,4.86
			c0,1.62,2.7,2.43,8.09,2.43c7.69,0,14.36-2.29,20.03-6.88c2.83-2.16,6.68-7.08,11.53-14.77c3.91-6.47,6.88-9.64,8.9-9.51
			c3.77,0,4.92,3.17,3.44,9.51c-1.75,7.82-2.29,12.14-1.62,12.95C626.67,374.58,631.8,376.41,639.35,376.54z"/>
		<path class="st0" d="M729.17,321.52c0,22.52-2.97,39.85-8.9,51.99c-7.82,15.91-22.05,27.18-42.68,33.78
			c-15.65,5.13-31.9,7.69-48.75,7.69c-3.91,0-5.87-3.3-5.87-9.91c0-6.2,1.65-12.51,4.96-18.91c3.31-6.4,7.11-9.61,11.43-9.61
			c20.9,0,39.85-3.77,56.84-11.33c6.61-2.83,9.64-8.02,9.1-15.58c-2.16-19.28-4.92-22.01-8.29-63.95c-0.4-7.96,1.58-16.69,5.97-26.2
			c4.38-9.51,8.26-14.26,11.63-14.26c4.45,0,7.96,13.82,10.52,41.47C727.82,315.15,729.17,308.17,729.17,321.52z"/>
		<path class="st0" d="M773.37,341.5c-0.28,13.89-2.16,12.75-5.65,22.6c-3.2,9.32-6.69,13.91-10.46,13.76
			c-3.38,0-5.31-2.16-5.82-6.5c-0.74-5.16-2.07-15.26-3.97-30.32c-1.91-15.06-3.64-17.93-5.21-34.66
			c-1.57-16.73-2.21-28.73-1.93-36.01c0.47-11.99,2.43-22.38,5.88-31.15c3.62-9.71,6.98-14.5,10.08-14.38
			c3.64,0.14,6.71,7.69,9.23,22.63c1.74,10.73,3.52,27.06,5.37,49C772.73,318.4,773.55,333.41,773.37,341.5z"/>
	</g>
	<polyline class="st0" points="756.29,224.83 708.65,247.38 698.15,273.38 756.29,245.22 	"/>
	<g>
		<path class="st0" d="M367.34,229.37l-35.23,35.23l35.23,35.23l35.23-35.23L367.34,229.37z M344.79,264.59l22.55-22.55l22.55,22.55
			l-22.55,22.55L344.79,264.59z"/>

			<rect x="357.13" y="254.39" transform="matrix(-0.7071 -0.7071 0.7071 -0.7071 439.9911 711.4391)" class="st0" width="20.41" height="20.41"/>
		<path class="st0" d="M328.71,383.24c15.2-30.65,31.96-55.97,50.28-75.96c10.5-11.67,20.19-17.27,29.09-16.8
			c3.32,0.18,6.54,1.22,9.65,3.14c7.6,4.78,11.08,13.08,10.45,24.9c-0.31,5.85-1.62,12.52-3.93,20.01
			c-8.21,20.16-19.24,38.33-33.07,54.5c-13.83,16.18-31.23,26.76-52.2,31.76l-5.77,1.19l-0.17-0.2c-8.9,4.02-20.23,7.97-34,11.85
			c-13.77,3.88-28.19,6.61-43.26,8.17c-11.73,1.37-23.29,1.75-34.68,1.14c-3.2-0.17-6.34-0.46-9.41-0.88
			c-14.44-1.39-26.65-5.54-36.63-12.44c-10.81-7.07-17.95-16.94-21.44-29.61c-2.01-6.85-2.82-13.94-2.43-21.29
			c0.55-10.33,3.56-21.09,9.04-32.29c9.34-18.98,18.85-35.57,28.53-49.78c1.66-2.16,3.32-3.19,4.98-3.1
			c0.59,0.03,1.18,0.13,1.77,0.28c1.27,0.69,1.86,1.85,1.78,3.47c-0.06,1.12-0.49,2.53-1.3,4.24c-11.66,20.1-17.83,36.44-18.5,49.01
			c-0.31,5.85,0.55,10.89,2.58,15.12c6.54,13.46,18.58,21.9,36.12,25.34c6.11,1.33,12.55,2.17,19.31,2.53
			c12.34,0.66,25.59-0.19,39.75-2.56C297.22,391.55,315.03,387.63,328.71,383.24z M379.61,335.78c-5.81,1.81-10.53,4.96-14.16,9.45
			c-3.63,4.49-7.17,8.89-10.61,13.2c-1.53,1.92-2.35,3.93-2.46,6.05c-0.08,1.49,0.25,3.01,1.01,4.55c1.58,3.83,3.75,6.57,6.52,8.21
			c7.74-0.08,16.47-2.24,26.22-6.46c3.66-1.68,5.6-4.63,5.83-8.86c0.13-2.49-0.31-5.45-1.31-8.87
			C387.8,343.77,384.13,338.02,379.61,335.78z"/>
	</g>
</g>
</svg>
